<svg width="47" height="18" viewBox="0 0 47 18" fill="none" xmlns="http://www.w3.org/2000/svg">
<g id="ALPHA">
<path d="M3.27018 0.599976H6.84618L9.58218 17.4H6.94218L6.46218 14.064V14.112H3.46218L2.98218 17.4H0.53418L3.27018 0.599976ZM6.15018 11.832L4.97418 3.52798H4.92618L3.77418 11.832H6.15018Z" fill="white"/>
<path d="M10.863 0.599976H13.503V15H17.847V17.4H10.863V0.599976Z" fill="white"/>
<path d="M19.113 0.599976H23.001C24.313 0.599976 25.297 0.951976 25.953 1.65598C26.609 2.35998 26.937 3.39198 26.937 4.75198V6.40798C26.937 7.76798 26.609 8.79998 25.953 9.50398C25.297 10.208 24.313 10.56 23.001 10.56H21.753V17.4H19.113V0.599976ZM23.001 8.15998C23.433 8.15998 23.753 8.03998 23.961 7.79998C24.185 7.55998 24.297 7.15198 24.297 6.57598V4.58398C24.297 4.00798 24.185 3.59998 23.961 3.35998C23.753 3.11998 23.433 2.99998 23.001 2.99998H21.753V8.15998H23.001Z" fill="white"/>
<path d="M28.3708 0.599976H31.0108V7.43998H33.8428V0.599976H36.4828V17.4H33.8428V9.83998H31.0108V17.4H28.3708V0.599976Z" fill="white"/>
<path d="M40.4889 0.599976H44.0649L46.8009 17.4H44.1609L43.6809 14.064V14.112H40.6809L40.2009 17.4H37.7529L40.4889 0.599976ZM43.3689 11.832L42.1929 3.52798H42.1449L40.9929 11.832H43.3689Z" fill="white"/>
</g>
</svg>
