<svg width="115" height="23" viewBox="0 0 115 23" fill="none" xmlns="http://www.w3.org/2000/svg">
<g id="Logotype">
<path d="M0.379883 21.9091V18.4291H3.13988V4.38914H0.379883V0.909136H11.1799C12.4599 0.909136 13.5699 1.12914 14.5099 1.56914C15.4699 1.98914 16.2099 2.59914 16.7299 3.39914C17.2699 4.17914 17.5399 5.11914 17.5399 6.21914V6.51914C17.5399 7.47914 17.3599 8.26914 16.9999 8.88914C16.6399 9.48914 16.2099 9.95914 15.7099 10.2991C15.2299 10.6191 14.7699 10.8491 14.3299 10.9891V11.5291C14.7699 11.6491 15.2499 11.8791 15.7699 12.2191C16.2899 12.5391 16.7299 13.0091 17.0899 13.6291C17.4699 14.2491 17.6599 15.0591 17.6599 16.0591V16.3591C17.6599 17.5191 17.3899 18.5191 16.8499 19.3591C16.3099 20.1791 15.5599 20.8091 14.5999 21.2491C13.6599 21.6891 12.5599 21.9091 11.2999 21.9091H0.379883ZM7.09988 18.3091H10.8199C11.6799 18.3091 12.3699 18.0991 12.8899 17.6791C13.4299 17.2591 13.6999 16.6591 13.6999 15.8791V15.5791C13.6999 14.7991 13.4399 14.1991 12.9199 13.7791C12.3999 13.3591 11.6999 13.1491 10.8199 13.1491H7.09988V18.3091ZM7.09988 9.54914H10.7599C11.5799 9.54914 12.2499 9.33914 12.7699 8.91914C13.3099 8.49914 13.5799 7.91914 13.5799 7.17914V6.87914C13.5799 6.11914 13.3199 5.53914 12.7999 5.13914C12.2799 4.71914 11.5999 4.50914 10.7599 4.50914H7.09988V9.54914Z" fill="white"/>
<path d="M26.6018 22.3291C25.1218 22.3291 23.7918 22.0291 22.6118 21.4291C21.4318 20.8291 20.5018 19.9591 19.8218 18.8191C19.1418 17.6791 18.8018 16.3091 18.8018 14.7091V14.2291C18.8018 12.6291 19.1418 11.2591 19.8218 10.1191C20.5018 8.97914 21.4318 8.10914 22.6118 7.50914C23.7918 6.90914 25.1218 6.60914 26.6018 6.60914C28.0818 6.60914 29.4118 6.90914 30.5918 7.50914C31.7718 8.10914 32.7018 8.97914 33.3818 10.1191C34.0618 11.2591 34.4018 12.6291 34.4018 14.2291V14.7091C34.4018 16.3091 34.0618 17.6791 33.3818 18.8191C32.7018 19.9591 31.7718 20.8291 30.5918 21.4291C29.4118 22.0291 28.0818 22.3291 26.6018 22.3291ZM26.6018 18.9691C27.7618 18.9691 28.7218 18.5991 29.4818 17.8591C30.2418 17.0991 30.6218 16.0191 30.6218 14.6191V14.3191C30.6218 12.9191 30.2418 11.8491 29.4818 11.1091C28.7418 10.3491 27.7818 9.96914 26.6018 9.96914C25.4418 9.96914 24.4818 10.3491 23.7218 11.1091C22.9618 11.8491 22.5818 12.9191 22.5818 14.3191V14.6191C22.5818 16.0191 22.9618 17.0991 23.7218 17.8591C24.4818 18.5991 25.4418 18.9691 26.6018 18.9691Z" fill="white"/>
<path d="M36.3909 21.9091V0.909136H40.1709V21.9091H36.3909Z" fill="white"/>
<path d="M48.5596 21.9091C47.5796 21.9091 46.7796 21.6091 46.1596 21.0091C45.5597 20.3891 45.2596 19.5691 45.2596 18.5491V10.1491H41.5396V7.02914H45.2596V2.40914H49.0396V7.02914H53.1196V10.1491H49.0396V17.8891C49.0396 18.4891 49.3196 18.7891 49.8796 18.7891H52.7596V21.9091H48.5596Z" fill="white"/>
<path d="M61.2213 22.3291C59.2813 22.3291 57.6913 21.9091 56.4513 21.0691C55.2113 20.2291 54.4613 19.0291 54.2013 17.4691L57.6813 16.5691C57.8213 17.2691 58.0513 17.8191 58.3713 18.2191C58.7113 18.6191 59.1213 18.9091 59.6013 19.0891C60.1013 19.2491 60.6413 19.3291 61.2213 19.3291C62.1013 19.3291 62.7513 19.1791 63.1713 18.8791C63.5913 18.5591 63.8013 18.1691 63.8013 17.7091C63.8013 17.2491 63.6013 16.8991 63.2013 16.6591C62.8013 16.3991 62.1613 16.1891 61.2813 16.0291L60.4413 15.8791C59.4013 15.6791 58.4513 15.4091 57.5913 15.0691C56.7313 14.7091 56.0413 14.2191 55.5213 13.5991C55.0013 12.9791 54.7413 12.1791 54.7413 11.1991C54.7413 9.71914 55.2813 8.58914 56.3613 7.80914C57.4413 7.00914 58.8613 6.60914 60.6213 6.60914C62.2813 6.60914 63.6613 6.97914 64.7613 7.71914C65.8613 8.45914 66.5813 9.42914 66.9213 10.6291L63.4113 11.7091C63.2513 10.9491 62.9213 10.4091 62.4213 10.0891C61.9413 9.76914 61.3413 9.60914 60.6213 9.60914C59.9013 9.60914 59.3513 9.73914 58.9713 9.99914C58.5913 10.2391 58.4013 10.5791 58.4013 11.0191C58.4013 11.4991 58.6013 11.8591 59.0013 12.0991C59.4013 12.3191 59.9413 12.4891 60.6213 12.6091L61.4613 12.7591C62.5813 12.9591 63.5913 13.2291 64.4913 13.5691C65.4113 13.8891 66.1313 14.3591 66.6513 14.9791C67.1913 15.5791 67.4613 16.3991 67.4613 17.4391C67.4613 18.9991 66.8913 20.2091 65.7513 21.0691C64.6313 21.9091 63.1213 22.3291 61.2213 22.3291Z" fill="white"/>
<path d="M69.2737 21.9091V0.909136H73.0537V8.85914H73.5937C73.7537 8.53914 74.0037 8.21914 74.3437 7.89914C74.6837 7.57914 75.1337 7.31914 75.6937 7.11914C76.2737 6.89914 77.0037 6.78914 77.8837 6.78914C79.0437 6.78914 80.0537 7.05914 80.9137 7.59914C81.7937 8.11914 82.4737 8.84914 82.9537 9.78914C83.4337 10.7091 83.6737 11.7891 83.6737 13.0291V21.9091H79.8937V13.3291C79.8937 12.2091 79.6137 11.3691 79.0537 10.8091C78.5137 10.2491 77.7337 9.96914 76.7137 9.96914C75.5537 9.96914 74.6537 10.3591 74.0137 11.1391C73.3737 11.8991 73.0537 12.9691 73.0537 14.3491V21.9091H69.2737Z" fill="white"/>
<path d="M86.26 21.9091V7.02914H90.04V21.9091H86.26ZM88.15 5.28914C87.47 5.28914 86.89 5.06914 86.41 4.62914C85.95 4.18914 85.72 3.60914 85.72 2.88914C85.72 2.16914 85.95 1.58914 86.41 1.14914C86.89 0.709136 87.47 0.489136 88.15 0.489136C88.85 0.489136 89.43 0.709136 89.89 1.14914C90.35 1.58914 90.58 2.16914 90.58 2.88914C90.58 3.60914 90.35 4.18914 89.89 4.62914C89.43 5.06914 88.85 5.28914 88.15 5.28914Z" fill="white"/>
<path d="M95.1888 21.9091V10.1491H91.4088V7.02914H95.1888V4.26914C95.1888 3.24914 95.4888 2.43914 96.0888 1.83914C96.7088 1.21914 97.5088 0.909136 98.4888 0.909136H102.389V4.02914H99.8088C99.2488 4.02914 98.9688 4.32914 98.9688 4.92914V7.02914H102.869V10.1491H98.9688V21.9091H95.1888Z" fill="white"/>
<path d="M109.702 21.9091C108.722 21.9091 107.922 21.6091 107.302 21.0091C106.702 20.3891 106.402 19.5691 106.402 18.5491V10.1491H102.682V7.02914H106.402V2.40914H110.182V7.02914H114.262V10.1491H110.182V17.8891C110.182 18.4891 110.462 18.7891 111.022 18.7891H113.902V21.9091H109.702Z" fill="white"/>
</g>
</svg>
