<svg width="45" height="44" viewBox="0 0 45 44" fill="none" xmlns="http://www.w3.org/2000/svg">
<g id="Logomark">
<path id="Shape" opacity="0.8" d="M36.7072 9.16308C36.2749 8.73086 35.8427 8.29864 35.4105 7.86642C34.1138 6.48331 32.7307 5.10021 31.0018 4.23577C29.0136 3.19844 26.8525 3.45777 24.6914 3.45777C21.4066 3.45777 13.1944 3.45777 8.35352 3.45777L11.6384 7.86642C17.603 7.86642 26.939 7.86642 31.2612 7.86642C33.0765 7.86642 34.6325 8.21219 36.1021 9.16308C36.3614 9.24952 36.6207 9.24952 36.7072 9.16308Z" fill="white"/>
<path id="Shape_2" opacity="0.9" d="M40.3371 16.2517C39.9049 15.8195 39.4727 15.3873 39.0405 14.955C37.7438 13.5719 36.3607 12.1888 34.6318 11.3244C32.6436 10.2871 30.4825 10.5464 28.3214 10.5464C25.4688 10.5464 18.6397 10.5464 13.7988 10.5464L17.0837 14.955C22.9619 14.955 31.0012 14.955 34.9776 14.955C36.7929 14.955 38.3489 15.3008 39.8185 16.2517C39.9914 16.3381 40.1643 16.3381 40.3371 16.2517Z" fill="white"/>
<path id="Shape_3" d="M44.4004 23.167C43.9681 22.7348 43.5359 22.3025 43.1037 21.8703C41.807 20.4872 40.4239 19.1041 38.6951 18.2397C36.7068 17.2023 34.5457 17.4617 32.3846 17.4617C29.7049 17.4617 23.8267 17.4617 19.0723 17.4617L22.3571 21.8703C28.0624 21.8703 35.3237 21.8703 38.9544 21.8703C40.7697 21.8703 42.3257 22.2161 43.7952 23.167C44.0546 23.2534 44.2275 23.3399 44.4004 23.167Z" fill="white"/>
<path id="Shape_4" opacity="0.8" d="M8.00781 34.8368C8.44003 35.269 8.87225 35.7012 9.30447 36.1335C10.6011 37.5166 11.9842 38.8997 13.7131 39.7641C15.7013 40.8014 17.8624 40.5421 20.0235 40.5421H36.3615L33.0766 36.1335C27.1119 36.1335 17.776 36.1335 13.4538 36.1335C11.6385 36.1335 10.0825 35.7877 8.61292 34.8368C8.35359 34.7504 8.1807 34.7504 8.00781 34.8368Z" fill="white"/>
<path id="Shape_5" opacity="0.9" d="M4.37695 27.7487C4.80917 28.1809 5.24139 28.6131 5.67361 29.0453C6.97027 30.4284 8.35337 31.8116 10.0823 32.676C12.0705 33.7133 14.2316 33.454 16.3927 33.454H30.9153L27.6304 29.0453C21.7522 29.0453 13.7129 29.0453 9.73648 29.0453C7.92116 29.0453 6.36516 28.6996 4.89561 27.7487C4.72272 27.6622 4.54984 27.6622 4.37695 27.7487Z" fill="white"/>
<path id="Shape_6" d="M0.400391 20.7465C0.832611 21.1787 1.26483 21.6109 1.69705 22.0431C2.99371 23.4262 4.37682 24.8094 6.1057 25.6738C8.09391 26.7111 10.255 26.4518 12.4161 26.4518H25.7285L22.4436 22.0431C16.7383 22.0431 9.47702 22.0431 5.84637 22.0431C4.03104 22.0431 2.47504 21.6974 1.0055 20.7465C0.746164 20.66 0.573279 20.66 0.400391 20.7465Z" fill="white"/>
</g>
</svg>
