<svg width="145" height="23" viewBox="0 0 145 23" fill="none" xmlns="http://www.w3.org/2000/svg">
<g id="Logotype">
<path d="M11.1393 22.2401C13.8393 22.2401 16.0593 20.8601 16.7493 18.7901V22.0001H20.7393V13.9001C20.7393 12.0701 19.2993 10.5101 17.3493 10.5101H11.6493V13.9001H15.6993C16.2093 13.9001 16.5393 14.2301 16.5393 14.7401C16.5393 16.6901 13.9593 18.5801 11.3493 18.5801C7.86934 18.5801 5.10934 15.8501 5.10934 11.5001C5.10934 7.15006 7.86934 4.63006 11.4393 4.63006C14.1393 4.63006 15.9993 6.10006 16.3293 8.35006H20.7993C20.5293 3.85006 16.7493 0.76006 11.4693 0.76006C5.91934 0.76006 0.819336 4.33006 0.819336 11.5001C0.819336 18.6701 5.76934 22.2401 11.1393 22.2401Z" fill="white"/>
<path d="M22.4521 22.0001H26.6221V0.310059H22.4521V22.0001Z" fill="white"/>
<path d="M35.6172 22.2401C40.2672 22.2401 43.5972 18.9401 43.5972 14.4401C43.5972 9.94006 40.2672 6.64006 35.6172 6.64006C30.9672 6.64006 27.6372 9.94006 27.6372 14.4401C27.6372 18.9401 30.9672 22.2401 35.6172 22.2401ZM35.6172 18.6401C33.3672 18.6401 31.8372 16.9301 31.8372 14.4401C31.8372 11.9201 33.3672 10.2101 35.6172 10.2101C37.8672 10.2101 39.3972 11.9201 39.3972 14.4401C39.3972 16.9301 37.8672 18.6401 35.6172 18.6401Z" fill="white"/>
<path d="M52.9282 22.2401C57.3982 22.2401 60.0682 19.1501 60.0682 14.4401C60.0682 9.73006 57.3982 6.64006 52.9882 6.64006C51.0982 6.64006 49.6282 7.36006 48.7882 8.47006V0.310059H44.6182V22.0001H48.7882V20.3501C49.6282 21.5201 51.1882 22.2401 52.9282 22.2401ZM52.2682 18.6401C50.0182 18.6401 48.5482 16.9601 48.5482 14.4401C48.5482 11.8901 50.0182 10.2101 52.2682 10.2101C54.4582 10.2101 55.9582 11.8901 55.9582 14.4401C55.9582 16.9601 54.4582 18.6401 52.2682 18.6401Z" fill="white"/>
<path d="M67.0486 6.64006C62.9086 6.64006 60.4486 9.07006 60.2686 12.1001H63.9886C64.0486 10.8401 64.9786 9.70006 66.8086 9.70006C68.5186 9.70006 69.5086 10.5701 69.5086 11.8301C69.5086 12.4601 69.1186 12.9401 68.3686 12.9401H65.8186C62.5186 12.9401 60.2986 14.7401 60.2986 17.7101C60.2986 20.2901 62.3086 22.2401 65.2486 22.2401C67.3186 22.2401 68.9986 21.3101 69.5086 19.9001V22.0001H73.6486V12.2801C73.6486 8.86006 70.8586 6.64006 67.0486 6.64006ZM66.2986 19.2101C65.1286 19.2101 64.2886 18.5201 64.2886 17.5301C64.2886 16.3601 65.1886 15.5801 66.4486 15.5801H69.5086V15.7901C69.5086 17.7101 68.3386 19.2101 66.2986 19.2101Z" fill="white"/>
<path d="M75.251 22.0001H79.421V0.310059H75.251V22.0001Z" fill="white"/>
<path d="M81.6361 22.0001H90.2161C94.6561 22.0001 97.7161 19.7201 97.7161 15.7301C97.7161 12.9701 96.0961 11.2901 94.1761 10.5401C95.4061 9.88006 96.6361 8.38006 96.6361 6.40006C96.6361 2.89006 93.7861 1.00006 89.9761 1.00006H81.6361V22.0001ZM86.0761 9.01006V4.57006H89.5561C91.5661 4.57006 92.4661 5.38006 92.4661 6.79006C92.4661 8.20006 91.5661 9.01006 89.6461 9.01006H86.0761ZM86.0761 18.1001V12.8201H89.8261C92.3161 12.8201 93.4261 13.7801 93.4261 15.4901C93.4261 17.2001 92.3161 18.1001 89.8261 18.1001H86.0761Z" fill="white"/>
<path d="M104.97 6.64006C100.83 6.64006 98.3704 9.07006 98.1904 12.1001H101.91C101.97 10.8401 102.9 9.70006 104.73 9.70006C106.44 9.70006 107.43 10.5701 107.43 11.8301C107.43 12.4601 107.04 12.9401 106.29 12.9401H103.74C100.44 12.9401 98.2204 14.7401 98.2204 17.7101C98.2204 20.2901 100.23 22.2401 103.17 22.2401C105.24 22.2401 106.92 21.3101 107.43 19.9001V22.0001H111.57V12.2801C111.57 8.86006 108.78 6.64006 104.97 6.64006ZM104.22 19.2101C103.05 19.2101 102.21 18.5201 102.21 17.5301C102.21 16.3601 103.11 15.5801 104.37 15.5801H107.43V15.7901C107.43 17.7101 106.26 19.2101 104.22 19.2101Z" fill="white"/>
<path d="M112.933 22.0001H117.133V13.7201C117.133 11.7701 118.423 10.3601 120.253 10.3601C121.993 10.3601 123.163 11.6801 123.163 13.5101V22.0001H127.363V12.5801C127.363 9.10006 125.143 6.64006 121.723 6.64006C119.653 6.64006 117.973 7.51006 117.133 8.98006V6.88006H112.933V22.0001Z" fill="white"/>
<path d="M139.333 22.0001H144.373L137.863 12.8201L143.893 6.88006H138.613L133.363 12.0401V0.310059H129.163V22.0001H133.363V17.2601L135.043 15.6101L139.333 22.0001Z" fill="white"/>
</g>
</svg>
