<svg width="39" height="44" viewBox="0 0 39 44" fill="none" xmlns="http://www.w3.org/2000/svg">
<g id="Logomark">
<path id="Shape" fill-rule="evenodd" clip-rule="evenodd" d="M19.9657 1.4479C19.4606 1.34403 18.9398 1.34403 18.4347 1.4479C17.8509 1.56797 17.3291 1.86023 16.9143 2.09258L16.8012 2.15574L2.74173 9.96657C2.70286 9.98816 2.6628 10.0102 2.62176 10.0328C2.18263 10.2747 1.63048 10.5788 1.20646 11.0389C0.83987 11.4368 0.562441 11.9082 0.392731 12.4219C0.196435 13.016 0.198732 13.6464 0.200558 14.1477C0.200729 14.1946 0.200896 14.2403 0.200896 14.2847V29.7067C0.200896 29.7511 0.200729 29.7969 0.200558 29.8437C0.198732 30.3451 0.196435 30.9754 0.392731 31.5695C0.562443 32.0832 0.839872 32.5547 1.20646 32.9525C1.63048 33.4126 2.18263 33.7167 2.62176 33.9586C2.66281 33.9812 2.70286 34.0033 2.74173 34.0249L16.8012 41.8357L16.9143 41.8988C17.3291 42.1312 17.8509 42.4235 18.4347 42.5435C18.9398 42.6474 19.4606 42.6474 19.9657 42.5435C20.5495 42.4235 21.0713 42.1312 21.4861 41.8988L21.5992 41.8357L35.6587 34.0249C35.6758 34.0153 35.6933 34.0057 35.7109 33.9959C35.7331 33.9837 35.7557 33.9712 35.7786 33.9586C36.2178 33.7167 36.7699 33.4126 37.1939 32.9525C37.5605 32.5547 37.838 32.0832 38.0077 31.5695C38.204 30.9754 38.2017 30.3451 38.1998 29.8437C38.1997 29.7969 38.1995 29.7511 38.1995 29.7067V14.2847C38.1995 14.2403 38.1997 14.1946 38.1998 14.1477C38.2017 13.6464 38.204 13.016 38.0077 12.4219C37.838 11.9082 37.5605 11.4367 37.1939 11.0389C36.7699 10.5788 36.2178 10.2747 35.7786 10.0328L35.7771 10.032C35.7366 10.0097 35.697 9.98788 35.6587 9.96657L21.5992 2.15574L21.4861 2.09257C21.0713 1.86022 20.5495 1.56797 19.9657 1.4479ZM18.6466 5.47742C18.9345 5.31746 19.0815 5.23664 19.1911 5.18376L19.2002 5.17941L19.2093 5.18376C19.3189 5.23664 19.4659 5.31746 19.7538 5.47742L32.3873 12.496L19.2001 19.8222L6.01304 12.4961L18.6466 5.47742ZM4.00076 15.725L17.3002 23.1136L17.3003 37.766L4.5871 30.7032C4.2832 30.5343 4.12804 30.4472 4.01919 30.3779L4.00999 30.372L4.00931 30.3611C4.00155 30.2323 4.00076 30.0543 4.00076 29.7067V15.725Z" fill="white"/>
</g>
</svg>
