<svg width="43" height="24" viewBox="0 0 43 24" fill="none" xmlns="http://www.w3.org/2000/svg">
<g id="Vector">
<path d="M19.2102 8.24607L11.403 19.5742C11.4047 19.5776 11.4081 19.581 11.4081 19.581L11.386 19.6116C11.3843 19.615 11.3826 19.6167 11.3826 19.6201C11.3809 19.6235 11.3792 19.6286 11.3758 19.6337C11.3724 19.6405 11.3707 19.649 11.3724 19.6558V19.6627C11.3724 19.6695 11.3741 19.6746 11.3758 19.6797C11.3741 19.6831 11.3741 19.6848 11.3758 19.6848C11.3775 19.6916 11.3809 19.6967 11.3843 19.7035L11.5901 20.0079L8.80401 23.8894C8.7989 23.8962 8.787 23.8962 8.78189 23.8894L8.77509 23.8775C8.77509 23.8758 8.77339 23.8758 8.77339 23.8741L6.03491 19.5198L16.7014 4.28632H16.7133L16.7167 4.28972V4.29143L19.2102 8.24437V8.24607Z" fill="white"/>
<path d="M42.8003 19.5181L39.6502 23.8707C39.6434 23.8707 39.6434 23.8707 39.6349 23.869L39.6179 23.8418L30.2577 8.77165L27.3849 12.8011C27.3815 12.8062 27.3798 12.8113 27.3764 12.8147L19.4263 23.9626C19.4212 23.9694 19.4126 23.9694 19.4092 23.9626L18.7068 22.8757L16.5874 19.5844H16.5772L16.5738 19.5793L30.4244 0L42.8003 19.5181Z" fill="white"/>
<path d="M39.5584 23.9507L34.4454 23.9524C34.4267 23.9524 34.408 23.9422 34.3978 23.9269L27.3832 12.8573C27.3747 12.842 27.3713 12.8283 27.3764 12.8147C27.3798 12.8113 27.3815 12.8062 27.3849 12.8011L30.2577 8.77165L39.6179 23.8418C39.6485 23.8894 39.6145 23.9507 39.5584 23.9507Z" fill="#EF4136"/>
<path d="M8.77509 23.8775C8.78019 23.8911 8.76999 23.9047 8.75638 23.9047L3.66042 23.7874L0.80457 19.5844C0.797767 19.5368 0.796066 19.5147 0.80457 19.5096C0.806271 19.5181 0.811373 19.5249 0.821578 19.5249L6.03491 19.5198L8.77339 23.8741C8.77339 23.8758 8.77509 23.8758 8.77509 23.8775Z" fill="#EF4136"/>
<path d="M19.3837 24L14.2044 23.8809L11.5901 20.0079L11.386 19.7018C11.3809 19.695 11.3775 19.6882 11.3758 19.6797C11.3741 19.6746 11.3724 19.6695 11.3724 19.6627V19.6558C11.3707 19.649 11.3724 19.6405 11.3758 19.6337C11.3792 19.6286 11.3809 19.6235 11.3826 19.6201C11.3962 19.5997 11.42 19.5844 11.4489 19.5844H16.5772L18.7068 22.8757L19.4058 23.9626C19.416 23.9779 19.4041 24 19.3837 24Z" fill="#EF4136"/>
<path d="M30.4244 0L16.5738 19.5793L11.4489 19.5844H11.4116C11.4116 19.5844 11.4098 19.5844 11.4081 19.581C11.4081 19.581 11.4047 19.5776 11.403 19.5742L19.2102 8.24607V8.24437L20.85 5.86648L21.9488 4.28462L16.7201 4.28632H16.7014L6.03491 19.5198L0.821578 19.5249C0.811373 19.5249 0.806271 19.5181 0.80457 19.5096C0.80457 19.5062 0.80462 19.5011 0.808021 19.4977L8.3329 8.77165H8.3346L11.4813 4.28462H0.0238965C0.00858821 4.28462 8.42216e-05 4.26761 0.00858883 4.2557L3.02092 0H30.4244Z" fill="black"/>
<path d="M21.9488 4.28462L20.85 5.86648L19.2102 8.24437L16.7167 4.29143V4.28972C16.7167 4.28802 16.7184 4.28632 16.7201 4.28632L21.9488 4.28462Z" fill="#EF4136"/>
<path d="M11.4813 4.28462L8.3346 8.77165H2.78104L0.00173545 4.30503C-0.00336732 4.29483 0.00343502 4.28462 0.0136405 4.28462H11.4813Z" fill="#EF4136"/>
</g>
</svg>
