<svg width="352" height="258" viewBox="0 0 352 258" fill="none" xmlns="http://www.w3.org/2000/svg">
<path d="M157.99 68.0301L93.7811 161.487C93.7951 161.515 93.8231 161.543 93.8231 161.543L93.6412 161.796C93.6272 161.824 93.6133 161.838 93.6133 161.866C93.5993 161.894 93.5853 161.936 93.5573 161.978C93.5293 162.034 93.5153 162.105 93.5293 162.161V162.217C93.5293 162.273 93.5433 162.315 93.5573 162.357C93.5433 162.385 93.5433 162.399 93.5573 162.399C93.5713 162.455 93.5993 162.498 93.6272 162.554L95.3199 165.065L72.4063 197.088C72.3643 197.144 72.2664 197.144 72.2244 197.088L72.1684 196.99C72.1684 196.976 72.1544 196.976 72.1544 196.962L49.6325 161.038L137.356 35.3622H137.454L137.482 35.3902V35.4043L157.99 68.016V68.0301Z" fill="white"/>
<path d="M352 161.024L326.093 196.934C326.037 196.934 326.037 196.934 325.967 196.92L325.827 196.695L248.847 72.3661L225.22 105.609C225.192 105.651 225.178 105.694 225.15 105.722L159.766 197.691C159.724 197.747 159.654 197.747 159.626 197.691L153.849 188.724L136.419 161.571H136.335L136.307 161.529L250.218 0L352 161.024Z" fill="white"/>
<path d="M325.337 197.593L283.287 197.607C283.133 197.607 282.979 197.523 282.895 197.397L225.206 106.072C225.136 105.946 225.108 105.834 225.15 105.722C225.178 105.694 225.192 105.651 225.22 105.609L248.847 72.3661L325.827 196.695C326.079 197.088 325.799 197.593 325.337 197.593Z" fill="#EF4136"/>
<path d="M72.1684 196.99C72.2104 197.102 72.1264 197.214 72.0145 197.214L30.1041 196.246L6.61698 161.571C6.56102 161.178 6.54704 160.996 6.61698 160.954C6.63097 161.024 6.67292 161.08 6.75685 161.08L49.6325 161.038L72.1544 196.962C72.1544 196.976 72.1684 196.976 72.1684 196.99Z" fill="#EF4136"/>
<path d="M159.416 198L116.821 197.018L95.3199 165.065L93.6412 162.54C93.5992 162.484 93.5713 162.427 93.5573 162.357C93.5433 162.315 93.5293 162.273 93.5293 162.217V162.161C93.5153 162.105 93.5293 162.034 93.5573 161.978C93.5853 161.936 93.5993 161.894 93.6133 161.866C93.7252 161.698 93.921 161.571 94.1588 161.571L136.335 161.571L153.849 188.724L159.598 197.691C159.682 197.818 159.584 198 159.416 198Z" fill="#EF4136"/>
<path d="M250.218 0L136.307 161.529L94.1588 161.571H93.8515C93.8515 161.571 93.8371 161.571 93.8231 161.543C93.8231 161.543 93.7951 161.515 93.7811 161.487L157.99 68.0301V68.016L171.475 48.3984L180.512 35.3481L137.51 35.3622H137.356L49.6325 161.038L6.75685 161.08C6.67292 161.08 6.63097 161.024 6.61698 160.954C6.61698 160.926 6.61738 160.884 6.64536 160.856L68.5317 72.3661H68.5457L94.425 35.3481H0.196531C0.0706314 35.3481 0.000692658 35.2078 0.0706366 35.1096L24.8448 0H250.218Z" fill="black"/>
<path d="M180.512 35.3481L171.475 48.3984L157.99 68.016L137.482 35.4043V35.3902C137.482 35.3762 137.496 35.3622 137.51 35.3622L180.512 35.3481Z" fill="#EF4136"/>
<path d="M94.425 35.3481L68.5457 72.3661H22.8719L0.0142727 35.5165C-0.0276936 35.4323 0.0282504 35.3481 0.112183 35.3481H94.425Z" fill="#EF4136"/>
<path d="M164.78 238.62C165.167 238.087 165.693 237.653 166.36 237.32C167.04 236.973 167.793 236.8 168.62 236.8C169.593 236.8 170.473 237.033 171.26 237.5C172.047 237.967 172.667 238.633 173.12 239.5C173.573 240.353 173.8 241.333 173.8 242.44C173.8 243.547 173.573 244.54 173.12 245.42C172.667 246.287 172.04 246.967 171.24 247.46C170.453 247.94 169.58 248.18 168.62 248.18C167.767 248.18 167.007 248.013 166.34 247.68C165.687 247.347 165.167 246.92 164.78 246.4V248H162.5V233.2H164.78V238.62ZM171.48 242.44C171.48 241.68 171.32 241.027 171 240.48C170.693 239.92 170.28 239.5 169.76 239.22C169.253 238.927 168.707 238.78 168.12 238.78C167.547 238.78 167 238.927 166.48 239.22C165.973 239.513 165.56 239.94 165.24 240.5C164.933 241.06 164.78 241.72 164.78 242.48C164.78 243.24 164.933 243.907 165.24 244.48C165.56 245.04 165.973 245.467 166.48 245.76C167 246.053 167.547 246.2 168.12 246.2C168.707 246.2 169.253 246.053 169.76 245.76C170.28 245.453 170.693 245.013 171 244.44C171.32 243.867 171.48 243.2 171.48 242.44ZM185.975 236.98L179.215 253.18H176.855L179.095 247.82L174.755 236.98H177.295L180.395 245.38L183.615 236.98H185.975ZM213.146 248H209.042L202.178 237.608V248H198.074V231.152H202.178L209.042 241.592V231.152H213.146V248ZM229.345 234.608V248H225.241V246.176C224.825 246.768 224.257 247.248 223.537 247.616C222.833 247.968 222.049 248.144 221.185 248.144C220.161 248.144 219.257 247.92 218.473 247.472C217.689 247.008 217.081 246.344 216.649 245.48C216.217 244.616 216.001 243.6 216.001 242.432V234.608H220.081V241.88C220.081 242.776 220.313 243.472 220.777 243.968C221.241 244.464 221.865 244.712 222.649 244.712C223.449 244.712 224.081 244.464 224.545 243.968C225.009 243.472 225.241 242.776 225.241 241.88V234.608H229.345ZM249.381 234.464C251.045 234.464 252.365 234.968 253.341 235.976C254.333 236.984 254.829 238.384 254.829 240.176V248H250.749V240.728C250.749 239.864 250.517 239.2 250.053 238.736C249.605 238.256 248.981 238.016 248.181 238.016C247.381 238.016 246.749 238.256 246.285 238.736C245.837 239.2 245.613 239.864 245.613 240.728V248H241.533V240.728C241.533 239.864 241.301 239.2 240.837 238.736C240.389 238.256 239.765 238.016 238.965 238.016C238.165 238.016 237.533 238.256 237.069 238.736C236.621 239.2 236.397 239.864 236.397 240.728V248H232.293V234.608H236.397V236.288C236.813 235.728 237.357 235.288 238.029 234.968C238.701 234.632 239.461 234.464 240.309 234.464C241.317 234.464 242.213 234.68 242.997 235.112C243.797 235.544 244.421 236.16 244.869 236.96C245.333 236.224 245.965 235.624 246.765 235.16C247.565 234.696 248.437 234.464 249.381 234.464ZM256.883 241.28C256.883 239.904 257.139 238.696 257.651 237.656C258.179 236.616 258.891 235.816 259.787 235.256C260.683 234.696 261.683 234.416 262.787 234.416C263.731 234.416 264.555 234.608 265.259 234.992C265.979 235.376 266.531 235.88 266.915 236.504V234.608H271.019V248H266.915V246.104C266.515 246.728 265.955 247.232 265.235 247.616C264.531 248 263.707 248.192 262.763 248.192C261.675 248.192 260.683 247.912 259.787 247.352C258.891 246.776 258.179 245.968 257.651 244.928C257.139 243.872 256.883 242.656 256.883 241.28ZM266.915 241.304C266.915 240.28 266.627 239.472 266.051 238.88C265.491 238.288 264.803 237.992 263.987 237.992C263.171 237.992 262.475 238.288 261.899 238.88C261.339 239.456 261.059 240.256 261.059 241.28C261.059 242.304 261.339 243.12 261.899 243.728C262.475 244.32 263.171 244.616 263.987 244.616C264.803 244.616 265.491 244.32 266.051 243.728C266.627 243.136 266.915 242.328 266.915 241.304ZM273.172 241.28C273.172 239.904 273.428 238.696 273.94 237.656C274.468 236.616 275.18 235.816 276.076 235.256C276.972 234.696 277.972 234.416 279.076 234.416C279.956 234.416 280.756 234.6 281.476 234.968C282.212 235.336 282.788 235.832 283.204 236.456V230.24H287.308V248H283.204V246.08C282.82 246.72 282.268 247.232 281.548 247.616C280.844 248 280.02 248.192 279.076 248.192C277.972 248.192 276.972 247.912 276.076 247.352C275.18 246.776 274.468 245.968 273.94 244.928C273.428 243.872 273.172 242.656 273.172 241.28ZM283.204 241.304C283.204 240.28 282.916 239.472 282.34 238.88C281.78 238.288 281.092 237.992 280.276 237.992C279.46 237.992 278.764 238.288 278.188 238.88C277.628 239.456 277.348 240.256 277.348 241.28C277.348 242.304 277.628 243.12 278.188 243.728C278.764 244.32 279.46 244.616 280.276 244.616C281.092 244.616 281.78 244.32 282.34 243.728C282.916 243.136 283.204 242.328 283.204 241.304ZM299.467 244.832H304.843V248H295.363V231.152H299.467V244.832ZM305.985 241.28C305.985 239.904 306.241 238.696 306.753 237.656C307.281 236.616 307.993 235.816 308.889 235.256C309.785 234.696 310.785 234.416 311.889 234.416C312.833 234.416 313.657 234.608 314.361 234.992C315.081 235.376 315.633 235.88 316.017 236.504V234.608H320.121V248H316.017V246.104C315.617 246.728 315.057 247.232 314.337 247.616C313.633 248 312.809 248.192 311.865 248.192C310.777 248.192 309.785 247.912 308.889 247.352C307.993 246.776 307.281 245.968 306.753 244.928C306.241 243.872 305.985 242.656 305.985 241.28ZM316.017 241.304C316.017 240.28 315.729 239.472 315.153 238.88C314.593 238.288 313.905 237.992 313.089 237.992C312.273 237.992 311.577 238.288 311.001 238.88C310.441 239.456 310.161 240.256 310.161 241.28C310.161 242.304 310.441 243.12 311.001 243.728C311.577 244.32 312.273 244.616 313.089 244.616C313.905 244.616 314.593 244.32 315.153 243.728C315.729 243.136 316.017 242.328 316.017 241.304ZM327.194 236.504C327.578 235.88 328.13 235.376 328.85 234.992C329.57 234.608 330.394 234.416 331.322 234.416C332.426 234.416 333.426 234.696 334.322 235.256C335.218 235.816 335.922 236.616 336.434 237.656C336.962 238.696 337.226 239.904 337.226 241.28C337.226 242.656 336.962 243.872 336.434 244.928C335.922 245.968 335.218 246.776 334.322 247.352C333.426 247.912 332.426 248.192 331.322 248.192C330.378 248.192 329.554 248.008 328.85 247.64C328.146 247.256 327.594 246.752 327.194 246.128V248H323.09V230.24H327.194V236.504ZM333.05 241.28C333.05 240.256 332.762 239.456 332.186 238.88C331.626 238.288 330.93 237.992 330.098 237.992C329.282 237.992 328.586 238.288 328.01 238.88C327.45 239.472 327.17 240.28 327.17 241.304C327.17 242.328 327.45 243.136 328.01 243.728C328.586 244.32 329.282 244.616 330.098 244.616C330.914 244.616 331.61 244.32 332.186 243.728C332.762 243.12 333.05 242.304 333.05 241.28ZM344.827 248.192C343.659 248.192 342.619 247.992 341.707 247.592C340.795 247.192 340.075 246.648 339.547 245.96C339.019 245.256 338.723 244.472 338.659 243.608H342.715C342.763 244.072 342.979 244.448 343.363 244.736C343.747 245.024 344.219 245.168 344.779 245.168C345.291 245.168 345.683 245.072 345.955 244.88C346.243 244.672 346.387 244.408 346.387 244.088C346.387 243.704 346.187 243.424 345.787 243.248C345.387 243.056 344.739 242.848 343.843 242.624C342.883 242.4 342.083 242.168 341.443 241.928C340.803 241.672 340.251 241.28 339.787 240.752C339.323 240.208 339.091 239.48 339.091 238.568C339.091 237.8 339.299 237.104 339.715 236.48C340.147 235.84 340.771 235.336 341.587 234.968C342.419 234.6 343.403 234.416 344.539 234.416C346.219 234.416 347.539 234.832 348.499 235.664C349.475 236.496 350.035 237.6 350.179 238.976H346.387C346.323 238.512 346.115 238.144 345.763 237.872C345.427 237.6 344.979 237.464 344.419 237.464C343.939 237.464 343.571 237.56 343.315 237.752C343.059 237.928 342.931 238.176 342.931 238.496C342.931 238.88 343.131 239.168 343.531 239.36C343.947 239.552 344.587 239.744 345.451 239.936C346.443 240.192 347.251 240.448 347.875 240.704C348.499 240.944 349.043 241.344 349.507 241.904C349.987 242.448 350.235 243.184 350.251 244.112C350.251 244.896 350.027 245.6 349.579 246.224C349.147 246.832 348.515 247.312 347.683 247.664C346.867 248.016 345.915 248.192 344.827 248.192Z" fill="white"/>
</svg>
