<svg width="112" height="29" viewBox="0 0 112 29" fill="none" xmlns="http://www.w3.org/2000/svg">
<g id="Logotype">
<path d="M8.44934 22.2401C13.1593 22.2401 16.3393 19.7801 16.3393 15.8501C16.3393 7.54006 5.29934 11.0801 5.29934 6.70006C5.29934 5.47006 6.40934 4.63006 8.17934 4.63006C10.1893 4.63006 11.4493 5.71006 11.5993 7.36006H15.8893C15.7693 3.37006 12.7093 0.76006 8.17934 0.76006C3.91934 0.76006 0.919336 3.22006 0.919336 6.70006C0.919336 14.9501 11.8093 11.8001 11.8093 15.9101C11.8093 17.5001 10.4593 18.3401 8.44934 18.3401C6.22934 18.3401 4.81934 16.9901 4.63934 14.8601H0.319336C0.499336 19.3301 3.67934 22.2401 8.44934 22.2401Z" fill="white"/>
<path d="M17.3596 28.1201H21.5296V20.6501C22.3396 21.6701 23.8096 22.2401 25.5196 22.2401C29.8696 22.2401 32.8096 19.1501 32.8096 14.4401C32.8096 9.73006 30.1096 6.64006 25.8796 6.64006C23.9296 6.64006 22.4296 7.36006 21.5296 8.53006V6.88006H17.3596V28.1201ZM25.0096 18.6401C22.7596 18.6401 21.2896 16.9601 21.2896 14.4401C21.2896 11.8901 22.7596 10.2101 25.0096 10.2101C27.1996 10.2101 28.6996 11.8901 28.6996 14.4401C28.6996 16.9601 27.1996 18.6401 25.0096 18.6401Z" fill="white"/>
<path d="M33.8186 22.0001H37.9886V13.7201C37.9886 11.7701 39.2786 10.3601 41.1086 10.3601C42.8486 10.3601 44.0486 11.6801 44.0486 13.5101V22.0001H48.2186V12.5801C48.2186 9.10006 45.9986 6.64006 42.6086 6.64006C40.5086 6.64006 38.8586 7.51006 37.9886 8.98006V0.310059H33.8186V22.0001Z" fill="white"/>
<path d="M59.8839 16.8701C59.5539 18.1601 58.4439 18.8201 56.7639 18.8201C54.6639 18.8201 53.3139 17.5001 53.0139 15.3701H63.8739C63.9039 15.0401 63.9339 14.5901 63.9339 14.0201C63.9339 10.5701 61.8039 6.64006 56.4639 6.64006C51.3339 6.64006 48.9939 10.5701 48.9939 14.4101C48.9939 18.2201 51.6339 22.2401 56.7639 22.2401C60.4839 22.2401 63.3639 20.1401 63.9639 16.8701H59.8839ZM56.4639 9.70006C58.4739 9.70006 59.6439 11.0501 59.7639 12.7301H53.0739C53.4339 10.6301 54.5739 9.70006 56.4639 9.70006Z" fill="white"/>
<path d="M74.8703 10.3601V6.88006H72.7187C70.8887 6.88006 69.7487 7.51006 68.9387 9.40006V6.88006H64.7387V22.0001H68.9387V14.6501C68.9387 12.0701 69.8687 10.3601 71.9387 10.3601H74.8703Z" fill="white"/>
<path d="M89.2703 6.88006H85.0703V15.1601C85.0703 17.0801 83.7803 18.5201 81.9503 18.5201C80.2403 18.5201 79.0403 17.2001 79.0403 15.3701V6.88006H74.8703V16.3001C74.8703 19.7501 77.0903 22.2401 80.4803 22.2401C82.5503 22.2401 84.2303 21.3401 85.0703 19.9001V22.0001H89.2703V6.88006Z" fill="white"/>
<path d="M91.0705 22.0001H95.2405V0.310059H91.0705V22.0001Z" fill="white"/>
<path d="M107.146 16.8701C106.816 18.1601 105.706 18.8201 104.026 18.8201C101.926 18.8201 100.576 17.5001 100.276 15.3701H111.136C111.166 15.0401 111.196 14.5901 111.196 14.0201C111.196 10.5701 109.066 6.64006 103.726 6.64006C98.5956 6.64006 96.2556 10.5701 96.2556 14.4101C96.2556 18.2201 98.8956 22.2401 104.026 22.2401C107.746 22.2401 110.626 20.1401 111.226 16.8701H107.146ZM103.726 9.70006C105.736 9.70006 106.906 11.0501 107.026 12.7301H100.336C100.696 10.6301 101.836 9.70006 103.726 9.70006Z" fill="white"/>
</g>
</svg>
