<svg width="45" height="45" viewBox="0 0 45 45" fill="none" xmlns="http://www.w3.org/2000/svg">
<g id="Logomark">
<circle id="Shape" cx="22.5996" cy="22.2499" r="20.5" stroke="white" stroke-width="3"/>
<path id="Shape_2" d="M30.7316 30.3817C26.5922 34.5211 21.9027 37.2233 17.7263 38.2972C13.5123 39.3808 10.1156 38.7571 8.10422 36.7456C6.09281 34.7342 5.46902 31.3376 6.55265 27.1235C7.62657 22.9472 10.3288 18.2576 14.4682 14.1182C18.6076 9.97883 23.2971 7.27662 27.4735 6.2027C31.6876 5.11907 35.0842 5.74286 37.0956 7.75427C39.107 9.76568 39.7308 13.1623 38.6472 17.3764C37.5732 21.5528 34.871 26.2423 30.7316 30.3817Z" stroke="white" stroke-width="3"/>
<path id="Shape_3" d="M30.7311 14.1182C34.8704 18.2576 37.5727 22.9471 38.6466 27.1235C39.7302 31.3376 39.1064 34.7342 37.095 36.7456C35.0836 38.757 31.687 39.3808 27.4729 38.2972C23.2965 37.2233 18.607 34.5211 14.4676 30.3817C10.3282 26.2423 7.62599 21.5528 6.55206 17.3764C5.46844 13.1623 6.09223 9.76567 8.10363 7.75426C10.115 5.74285 13.5117 5.11906 17.7258 6.20269C21.9021 7.27661 26.5917 9.97882 30.7311 14.1182Z" stroke="white" stroke-width="3"/>
</g>
</svg>
