<svg width="40" height="18" viewBox="0 0 40 18" fill="none" xmlns="http://www.w3.org/2000/svg">
<g id="TEAM">
<path d="M3.56078 2.99998H0.800781V0.599976H8.96078V2.99998H6.20078V17.4H3.56078V2.99998Z" fill="#EF4136"/>
<path d="M10.239 0.599976H17.439V2.99998H12.879V7.43998H16.503V9.83998H12.879V15H17.439V17.4H10.239V0.599976Z" fill="#EF4136"/>
<path d="M20.9977 0.599976H24.5737L27.3097 17.4H24.6697L24.1897 14.064V14.112H21.1897L20.7097 17.4H18.2617L20.9977 0.599976ZM23.8777 11.832L22.7017 3.52798H22.6537L21.5017 11.832H23.8777Z" fill="#EF4136"/>
<path d="M28.5905 0.599976H32.3585L34.0385 12.624H34.0865L35.7665 0.599976H39.5345V17.4H37.0385V4.67998H36.9905L35.0705 17.4H32.8625L30.9425 4.67998H30.8945V17.4H28.5905V0.599976Z" fill="#EF4136"/>
</g>
</svg>
